<svg xmlns="http://www.w3.org/2000/svg" style="display: none;">
    <symbol id="logo-load-page" xmlns="http://www.w3.org/2000/svg" width="93" height="20" viewBox="0 0 93 20" fill="none">
        <path d="M11.8115 1.22514V11.5419C11.8355 12.1367 11.7215 12.729 11.4782 13.2724C11.2851 13.6987 11.0006 14.0774 10.6449 14.3818C10.3356 14.6293 9.98079 14.814 9.60042 14.9253C8.93576 15.1391 8.22063 15.1391 7.55597 14.9253C7.15401 14.8172 6.77673 14.6327 6.44486 14.3818C6.08585 14.0778 5.79766 13.6992 5.60042 13.2724C5.36685 12.7263 5.25683 12.1354 5.27819 11.5419V0.00488281H0.000415295V11.5419C-0.0106727 12.7279 0.200358 13.9055 0.622638 15.0141C1.01056 16.0113 1.60068 16.9177 2.35597 17.6765C3.13104 18.4277 4.05436 19.0095 5.06708 19.3848C6.19103 19.7957 7.3815 19.995 8.57819 19.9728C9.77559 19.9914 10.9661 19.7883 12.0893 19.3737C13.102 18.9984 14.0253 18.4166 14.8004 17.6654C15.5571 16.9099 16.1442 16.0024 16.5226 15.003C16.936 13.8923 17.143 12.7156 17.1337 11.5308V1.22514V0.00488281H11.8115V1.22514Z" fill="#111111"/>
        <path d="M36.2762 0.00512695H36.154L30.5984 8.77991C30.5984 8.77991 24.8651 0.00512695 24.8318 0.00512695H19.3984V19.973H24.8318V9.55643L30.5651 17.6434L36.1207 9.55643V19.973H41.5651V18.7528V1.22539V0.00512695H36.2762Z" fill="#111111"/>
        <path d="M43.8555 1.22539V10.1998V18.7639V19.3185V19.9841H44.4888H48.5221H49.1666V19.3407V10.1998L49.1777 1.22539V0.00512695H43.8555V1.22539Z" fill="#111111"/>
        <path d="M91.6124 6.11735C91.1061 4.93333 90.3783 3.85655 89.468 2.94468C88.553 2.03499 87.4751 1.30496 86.2902 0.792583C85.0606 0.269587 83.7379 0 82.4013 0C81.0648 0 79.742 0.269587 78.5124 0.792583C77.3263 1.29677 76.2505 2.02788 75.3458 2.94468C74.4469 3.86131 73.7272 4.93727 73.2235 6.11735C72.6997 7.34498 72.4297 8.66561 72.4297 10C72.4297 11.3344 72.6997 12.655 73.2235 13.8826C73.7339 15.0645 74.4612 16.1406 75.368 17.0553C76.2728 17.9721 77.3486 18.7032 78.5347 19.2074C79.7643 19.7304 81.087 20 82.4235 20C83.7601 20 85.0828 19.7304 86.3124 19.2074C87.4973 18.695 88.5753 17.965 89.4902 17.0553C90.4005 16.1434 91.1283 15.0667 91.6347 13.8826C92.1662 12.6541 92.4312 11.3271 92.4124 9.98891C92.4198 8.65675 92.1472 7.33785 91.6124 6.11735ZM86.8124 11.8859C86.5718 12.4726 86.2253 13.0103 85.7902 13.4722C85.3523 13.9335 84.8323 14.3097 84.2569 14.5815C83.681 14.8557 83.0504 14.996 82.4124 14.992C81.7709 14.9962 81.1366 14.8559 80.5569 14.5815C79.9865 14.3121 79.4734 13.9355 79.0458 13.4722C78.6142 13.0097 78.2715 12.472 78.0347 11.8859C77.7806 11.2858 77.6521 10.6403 77.6569 9.98891C77.6682 8.70203 78.164 7.46649 79.0458 6.52781C79.4759 6.06736 79.9884 5.69114 80.5569 5.41848C81.1366 5.14412 81.7709 5.00382 82.4124 5.00803C83.0504 5.00396 83.681 5.14429 84.2569 5.41848C84.8304 5.69357 85.3498 6.06931 85.7902 6.52781C86.2298 6.98192 86.577 7.51689 86.8124 8.10305C87.058 8.70177 87.1862 9.34195 87.1902 9.98891C87.1894 10.6398 87.061 11.2842 86.8124 11.8859Z" fill="#111111"/>
        <path d="M65.5567 0.00512695H64.8789V0.681817V1.22539V5.28553H70.1678V1.22539V0.681817V0.00512695H69.5567H65.5567Z" fill="#111111"/>
        <path d="M56.878 0.00512695H56.2003H52.1225H52.1114H51.4336V0.681817V1.22539V5.28553V18.7639V19.3074V19.9841H52.1225H56.2003H56.878V19.3074V18.7639V8.41383L64.878 19.9841H69.4891H70.1669V19.3074V18.7639V17.8098L60.5336 5.28553L56.878 0.00512695Z" fill="#111111"/>
    </symbol>

    <symbol id="message" xmlns="http://www.w3.org/2000/svg" width="56" height="42" viewBox="0 0 56 42" fill="none">
    <path d="M53.1087 1H31.587C30.2684 1 29.1957 2.07144 29.1957 3.3884V23.6898C29.1957 25.0068 30.2684 26.0782 31.587 26.0782H41.75V40.4085C41.75 40.9705 42.488 41.2171 42.8261 40.7669L55.3804 24.0481C55.458 23.9448 55.5 23.819 55.5 23.6898V3.3884C55.5 2.07144 54.4274 1 53.1087 1ZM54.3043 23.4907L42.9457 38.6173V25.4811C42.9457 25.1513 42.6781 24.884 42.3478 24.884H31.587C30.9277 24.884 30.3913 24.3483 30.3913 23.6898V3.3884C30.3913 2.72992 30.9277 2.1942 31.587 2.1942H53.1087C53.768 2.1942 54.3043 2.72992 54.3043 3.3884V23.4907ZM24.413 1H2.8913C1.57274 1 0.5 2.07144 0.5 3.3884V23.6898C0.5 25.0068 1.57274 26.0782 2.8913 26.0782H13.0543V40.4086C13.0543 40.9674 13.7921 41.2175 14.1304 40.7669L26.6848 24.0481C26.7624 23.9448 26.8043 23.819 26.8043 23.6898V3.3884C26.8043 2.07144 25.7316 1 24.413 1ZM25.6087 23.4907L14.25 38.6173V25.4811C14.25 25.1513 13.9823 24.884 13.6522 24.884H2.8913C2.23202 24.884 1.69565 24.3483 1.69565 23.6898V3.3884C1.69565 2.72992 2.23202 2.1942 2.8913 2.1942H24.413C25.0723 2.1942 25.6087 2.72992 25.6087 3.3884V23.4907Z" fill="#111111" stroke="#111111" stroke-width="0.5"/>
    </symbol>

    <symbol id="account-header" xmlns="http://www.w3.org/2000/svg" width="17" height="17" viewBox="0 0 17 17" fill="currentColor">
        <path d="M16.8927 15.7682C16.0329 14.3137 14.8061 13.1078 13.3338 12.27C11.8614 11.4322 10.1946 10.9915 8.49845 10.9915C6.80225 10.9915 5.13546 11.4322 3.66314 12.27C2.19082 13.1078 0.964024 14.3137 0.104236 15.7682C-0.00102398 15.9568 -0.027822 16.179 0.0295835 16.387C0.0566587 16.493 0.106188 16.592 0.174854 16.6774C0.243521 16.7628 0.329737 16.8326 0.427728 16.8821C0.554141 16.9534 0.697158 16.9904 0.842462 16.9894C0.986554 16.9955 1.12952 16.9616 1.25545 16.8917C1.38138 16.8218 1.48536 16.7185 1.5558 16.5933C2.26752 15.3886 3.2833 14.3898 4.50251 13.6958C5.72172 13.0018 7.10204 12.6367 8.50674 12.6367C9.91144 12.6367 11.2918 13.0018 12.511 13.6958C13.7302 14.3898 14.746 15.3886 15.4577 16.5933C15.5685 16.7807 15.7491 16.9169 15.9603 16.9725C16.1715 17.0282 16.3963 16.9986 16.5858 16.8904C16.6801 16.8403 16.7628 16.7711 16.8285 16.6873C16.8943 16.6034 16.9415 16.5067 16.9673 16.4035C16.998 16.298 17.0072 16.1875 16.9944 16.0784C16.9816 15.9693 16.947 15.8638 16.8927 15.7682Z" fill="currentColor"/>
        <path d="M8.49844 10.2C9.835 10.2002 11.1182 9.67091 12.072 8.72594C13.0258 7.78097 13.5739 6.49588 13.5984 5.14718C13.5984 3.78206 13.0611 2.47286 12.1047 1.50757C11.1482 0.542291 9.85104 0 8.49844 0C7.14583 0 5.84863 0.542291 4.89219 1.50757C3.93576 2.47286 3.39844 3.78206 3.39844 5.14718C3.42294 6.49588 3.97106 7.78097 4.92485 8.72594C5.87864 9.67091 7.16188 10.2002 8.49844 10.2ZM5.09844 5.14718C5.09844 4.2371 5.45665 3.3643 6.09427 2.72078C6.7319 2.07725 7.5967 1.71573 8.49844 1.71573C9.40017 1.71573 10.265 2.07725 10.9026 2.72078C11.5402 3.3643 11.8984 4.2371 11.8984 5.14718C11.8984 6.05726 11.5402 6.93006 10.9026 7.57359C10.265 8.21711 9.40017 8.57864 8.49844 8.57864C7.5967 8.57864 6.7319 8.21711 6.09427 7.57359C5.45665 6.93006 5.09844 6.05726 5.09844 5.14718Z" fill="currentColor"/>
    </symbol>

    <symbol id="recently-pro-view" xmlns="http://www.w3.org/2000/svg" width="17" height="17" viewBox="0 0 17 17" fill="none">
        <path d="M17 8.49095C17 7.91161 16.9456 7.34434 16.8369 6.78914C16.7161 6.23394 16.5469 5.70288 16.3294 5.19595C16.124 4.68903 15.8642 4.20625 15.5501 3.7476C15.248 3.28896 14.9037 2.86652 14.5171 2.4803C14.1304 2.10614 13.7075 1.76216 13.2484 1.44835C12.8013 1.14661 12.3241 0.887114 11.8166 0.669862C11.3092 0.452609 10.7775 0.28967 10.2217 0.181044C9.66596 0.0603479 9.09204 0 8.5 0C7.90796 0 7.33404 0.0603479 6.77825 0.181044C6.22246 0.28967 5.69083 0.452609 5.18337 0.669862C4.67591 0.887114 4.19865 1.14661 3.7516 1.44835C3.29247 1.76216 2.86958 2.10614 2.48294 2.4803C2.0963 2.86652 1.75195 3.28896 1.44989 3.7476C1.13575 4.20625 0.869936 4.68903 0.652452 5.19595C0.44705 5.70288 0.283937 6.23394 0.163113 6.78914C0.054371 7.34434 0 7.91161 0 8.49095C0 9.08236 0.054371 9.65566 0.163113 10.2109C0.283937 10.7661 0.44705 11.2971 0.652452 11.804C0.869936 12.311 1.13575 12.7938 1.44989 13.2524C1.75195 13.699 2.0963 14.1154 2.48294 14.5016C2.86958 14.8878 3.29247 15.2318 3.7516 15.5335C4.19865 15.8474 4.67591 16.1129 5.18337 16.3301C5.69083 16.5474 6.22246 16.7103 6.77825 16.819C7.33404 16.9397 7.90796 17 8.5 17C9.09204 17 9.66596 16.9397 10.2217 16.819C10.7775 16.7103 11.3092 16.5474 11.8166 16.3301C12.3241 16.1129 12.8013 15.8474 13.2484 15.5335C13.7075 15.2318 14.1304 14.8878 14.5171 14.5016C14.9037 14.1154 15.248 13.699 15.5501 13.2524C15.8642 12.7938 16.124 12.311 16.3294 11.804C16.5469 11.2971 16.7161 10.7661 16.8369 10.2109C16.9456 9.65566 17 9.08236 17 8.49095ZM15.4595 8.49095C15.4595 9.45651 15.2783 10.3617 14.9158 11.2066C14.5533 12.0515 14.0579 12.7877 13.4296 13.4153C12.7893 14.043 12.0462 14.5378 11.2004 14.8999C10.3667 15.262 9.4666 15.443 8.5 15.443C7.5334 15.443 6.62722 15.262 5.78145 14.8999C4.94776 14.5378 4.21073 14.043 3.57036 13.4153C2.94208 12.7877 2.4467 12.0515 2.08422 11.2066C1.72175 10.3617 1.54051 9.45651 1.54051 8.49095C1.54051 7.53745 1.72175 6.63827 2.08422 5.7934C2.4467 4.94853 2.94208 4.21228 3.57036 3.58466C4.21073 2.95705 4.94776 2.46219 5.78145 2.10011C6.62722 1.72595 7.5334 1.53887 8.5 1.53887C9.4666 1.53887 10.3667 1.72595 11.2004 2.10011C12.0462 2.46219 12.7893 2.95705 13.4296 3.58466C14.0579 4.21228 14.5533 4.94853 14.9158 5.7934C15.2783 6.63827 15.4595 7.53745 15.4595 8.49095ZM7.72068 3.85623V8.49095C7.72068 8.64785 7.75693 8.78665 7.82942 8.90735C7.914 9.02804 8.02274 9.11857 8.15565 9.17891L11.2548 10.7359C11.436 10.8324 11.6294 10.8505 11.8348 10.7902C12.0402 10.7178 12.1912 10.585 12.2878 10.3919C12.3845 10.1988 12.3966 9.99965 12.3241 9.79446C12.2637 9.58928 12.1368 9.43841 11.9435 9.34185L9.27932 8.02023V3.85623C9.27932 3.65105 9.20078 3.47604 9.04371 3.3312C8.89872 3.1743 8.71748 3.09585 8.5 3.09585C8.28252 3.09585 8.09524 3.1743 7.93817 3.3312C7.79318 3.47604 7.72068 3.65105 7.72068 3.85623Z" fill="currentColor"/>
    </symbol>

    <symbol id="icon-search" xmlns="http://www.w3.org/2000/svg" width="15" height="15" viewBox="0 0 17 17" fill="#999">
        <path d="M11.9 11.731C11.8 11.731 11.8 11.731 11.9 11.731C11.8 11.8304 11.8 11.8304 11.8 11.8304C11.3 12.3275 10.7 12.7251 9.9 13.0234C9.2 13.3216 8.4 13.4211 7.6 13.4211C6.8 13.4211 6 13.2222 5.3 12.924C4.6 12.6257 4 12.2281 3.4 11.6316C2.9 11.1345 2.4 10.4386 2.1 9.74269C1.8 9.1462 1.7 8.45029 1.7 7.65497C1.7 6.85965 1.9 6.06433 2.2 5.36842C2.5 4.5731 2.9 3.97661 3.4 3.38012C4 2.88304 4.6 2.48538 5.3 2.18713C6 1.88889 6.8 1.69006 7.6 1.69006C8.4 1.69006 9.2 1.88889 9.9 2.18713C10.6 2.48538 11.3 2.88304 11.8 3.47953C12.3 3.97661 12.7 4.67251 13.1 5.36842C13.4 6.06433 13.6 6.76023 13.6 7.65497C13.6 8.45029 13.4 9.24561 13.1 9.94152C12.8 10.538 12.4 11.1345 11.9 11.731ZM16.7 15.4094L13.6 12.3275C14.1 11.6316 14.5 10.9357 14.8 10.1404C15.1 9.34503 15.2 8.45029 15.2 7.55556C15.2 6.46199 15 5.46784 14.6 4.5731C14.2 3.67836 13.7 2.88304 13 2.18713C12.3 1.49123 11.5 0.994152 10.6 0.596491C9.7 0.19883 8.7 0 7.6 0C6.6 0 5.6 0.19883 4.6 0.596491C3.7 0.994152 2.9 1.49123 2.2 2.18713C1.5 2.88304 1 3.67836 0.6 4.67251C0.2 5.56725 0 6.5614 0 7.65497C0 8.64912 0.2 9.64327 0.6 10.6374C1 11.5322 1.6 12.3275 2.3 13.0234C3 13.7193 3.8 14.2164 4.7 14.7134C5.6 15.0117 6.6 15.2105 7.6 15.2105C8.5 15.2105 9.4 15.1111 10.2 14.8129C11 14.5146 11.8 14.117 12.4 13.6199L15.5 16.7018C15.7 16.9006 15.9 17 16.1 17C16.3 17 16.5 16.9006 16.7 16.7018C16.9 16.5029 17 16.3041 17 16.1053C17 15.807 16.9 15.6082 16.7 15.4094Z" fill="#999999"/>
    </symbol>

    <symbol id="add-to-wishlist" width="14" height="13" viewBox="0 0 14 13" fill="currentColor" xmlns="http://www.w3.org/2000/svg">
        <path d="M11.7441 2.26562C11.9993 2.52083 12.1908 2.8125 12.3184 3.14062C12.446 3.45964 12.5098 3.78776 12.5098 4.125C12.5098 4.46224 12.446 4.79492 12.3184 5.12305C12.1908 5.44206 11.9993 5.72917 11.7441 5.98438L7 10.7285L2.25586 5.98438C2.00065 5.72917 1.80924 5.44206 1.68164 5.12305C1.55404 4.79492 1.49023 4.46224 1.49023 4.125C1.49023 3.78776 1.55404 3.45964 1.68164 3.14062C1.80924 2.8125 2.00065 2.52083 2.25586 2.26562C2.51107 2.01042 2.79818 1.81901 3.11719 1.69141C3.44531 1.5638 3.77799 1.5 4.11523 1.5C4.45247 1.5 4.7806 1.5638 5.09961 1.69141C5.41862 1.81901 5.71029 2.01042 5.97461 2.26562L6.58984 2.88086C6.69922 2.99935 6.83594 3.05859 7 3.05859C7.16406 3.05859 7.30078 2.99935 7.41016 2.88086L8.02539 2.26562C8.28971 2.01042 8.58138 1.81901 8.90039 1.69141C9.2194 1.5638 9.54753 1.5 9.88477 1.5C10.222 1.5 10.5501 1.5638 10.8691 1.69141C11.1973 1.81901 11.4889 2.01042 11.7441 2.26562ZM12.5645 1.44531C12.1999 1.07161 11.7806 0.79362 11.3066 0.611328C10.8418 0.429036 10.3678 0.337891 9.88477 0.337891C9.40169 0.337891 8.92773 0.429036 8.46289 0.611328C7.99805 0.79362 7.57878 1.07161 7.20508 1.44531L7 1.65039L6.79492 1.44531C6.42122 1.07161 6.00195 0.79362 5.53711 0.611328C5.07227 0.429036 4.59831 0.337891 4.11523 0.337891C3.63216 0.337891 3.15365 0.429036 2.67969 0.611328C2.21484 0.79362 1.80013 1.07161 1.43555 1.44531C1.06185 1.8099 0.779297 2.22917 0.587891 2.70312C0.405599 3.16797 0.314453 3.64193 0.314453 4.125C0.314453 4.60807 0.405599 5.08659 0.587891 5.56055C0.779297 6.02539 1.06185 6.4401 1.43555 6.80469L6.58984 11.959C6.69922 12.0775 6.83594 12.1367 7 12.1367C7.16406 12.1367 7.30078 12.0775 7.41016 11.959L12.5645 6.80469C12.9382 6.4401 13.2161 6.02539 13.3984 5.56055C13.5898 5.08659 13.6855 4.60807 13.6855 4.125C13.6855 3.64193 13.5898 3.16797 13.3984 2.70312C13.2161 2.23828 12.9382 1.81901 12.5645 1.44531Z"
                fill="currentColor"></path>
    </symbol>

    <symbol id="compare" width="14" height="14" viewBox="0 0 14 14" fill="currentColor" xmlns="http://www.w3.org/2000/svg">
        <path d="M7 1.98047L11.5254 4.25L7 6.51953L2.47461 4.25L7 1.98047ZM6.74023 0.818359L0.902344 3.73047C0.75651 3.80339 0.65625 3.91732 0.601562 4.07227C0.55599 4.2181 0.569661 4.36393 0.642578 4.50977C0.669922 4.57357 0.70638 4.62826 0.751953 4.67383C0.797526 4.71029 0.847656 4.74219 0.902344 4.76953L6.74023 7.68164C6.82227 7.72721 6.90885 7.75 7 7.75C7.09115 7.75 7.17773 7.72721 7.25977 7.68164L13.0977 4.76953C13.2435 4.69661 13.3392 4.58724 13.3848 4.44141C13.4395 4.28646 13.4303 4.13607 13.3574 3.99023C13.3301 3.92643 13.2936 3.8763 13.248 3.83984C13.2025 3.79427 13.1523 3.75781 13.0977 3.73047L7.25977 0.804688C7.17773 0.768229 7.09115 0.75 7 0.75C6.90885 0.75 6.82227 0.768229 6.74023 0.804688V0.818359ZM0.902344 10.6074L6.74023 13.5195C6.82227 13.5651 6.90885 13.5833 7 13.5742C7.09115 13.5742 7.17773 13.556 7.25977 13.5195L13.0977 10.6074C13.2435 10.5345 13.3392 10.4206 13.3848 10.2656C13.4395 10.1107 13.4303 9.96484 13.3574 9.82812C13.2845 9.68229 13.1706 9.58659 13.0156 9.54102C12.8607 9.48633 12.7148 9.49089 12.5781 9.55469L7 12.3438L1.42188 9.56836C1.28516 9.49544 1.13932 9.48633 0.984375 9.54102C0.829427 9.58659 0.715495 9.68229 0.642578 9.82812C0.569661 9.96484 0.55599 10.1107 0.601562 10.2656C0.65625 10.4206 0.75651 10.5345 0.902344 10.6074ZM0.902344 7.68164L6.74023 10.6074C6.82227 10.6439 6.90885 10.6621 7 10.6621C7.09115 10.6621 7.17773 10.6439 7.25977 10.6074L13.0977 7.68164C13.2435 7.61784 13.3392 7.50846 13.3848 7.35352C13.4395 7.19857 13.4303 7.04818 13.3574 6.90234C13.2845 6.75651 13.1706 6.66081 13.0156 6.61523C12.8607 6.56055 12.7148 6.56966 12.5781 6.64258L7 9.43164L1.42188 6.64258C1.28516 6.56966 1.13932 6.56055 0.984375 6.61523C0.829427 6.66081 0.715495 6.75651 0.642578 6.90234C0.569661 7.04818 0.55599 7.19857 0.601562 7.35352C0.65625 7.50846 0.75651 7.6224 0.902344 7.69531V7.68164Z"
                fill="currentColor"></path>
    </symbol>

    <symbol id="view" width="14" height="12" viewBox="0 0 14 12" fill="currentColor" xmlns="http://www.w3.org/2000/svg">
        <path d="M0.0683594 5.90234C0.0227865 5.98438 0 6.07096 0 6.16211C0 6.25326 0.0227865 6.33984 0.0683594 6.42188C0.0683594 6.42188 0.123047 6.52669 0.232422 6.73633C0.341797 6.93685 0.501302 7.19206 0.710938 7.50195C0.847656 7.69336 0.998047 7.90299 1.16211 8.13086C1.33529 8.34961 1.52669 8.57292 1.73633 8.80078C2.00065 9.08333 2.29232 9.36589 2.61133 9.64844C2.93945 9.93099 3.29492 10.1908 3.67773 10.4277C4.14258 10.7194 4.65299 10.9564 5.20898 11.1387C5.76497 11.321 6.36198 11.4121 7 11.4121C7.63802 11.4121 8.23503 11.321 8.79102 11.1387C9.34701 10.9564 9.85742 10.7194 10.3223 10.4277C10.7051 10.1908 11.056 9.93099 11.375 9.64844C11.7031 9.36589 11.9993 9.08333 12.2637 8.80078C12.4733 8.57292 12.6602 8.34961 12.8242 8.13086C12.9974 7.90299 13.1523 7.69336 13.2891 7.50195C13.4987 7.19206 13.6582 6.93685 13.7676 6.73633C13.877 6.52669 13.9316 6.42188 13.9316 6.42188C13.9772 6.34896 14 6.26693 14 6.17578C14 6.08464 13.9772 5.99349 13.9316 5.90234C13.9316 5.90234 13.877 5.80208 13.7676 5.60156C13.6582 5.39193 13.4987 5.13672 13.2891 4.83594C13.1523 4.64453 12.9974 4.43945 12.8242 4.2207C12.6602 3.99284 12.4733 3.76497 12.2637 3.53711C11.9993 3.25456 11.7031 2.97201 11.375 2.68945C11.056 2.4069 10.7051 2.14714 10.3223 1.91016C9.85742 1.61849 9.34701 1.38151 8.79102 1.19922C8.23503 1.00781 7.63802 0.912109 7 0.912109C6.36198 0.912109 5.76497 1.00781 5.20898 1.19922C4.65299 1.38151 4.14258 1.61849 3.67773 1.91016C3.29492 2.14714 2.93945 2.4069 2.61133 2.68945C2.29232 2.97201 2.00065 3.25456 1.73633 3.53711C1.52669 3.76497 1.33529 3.99284 1.16211 4.2207C0.998047 4.43945 0.847656 4.64453 0.710938 4.83594C0.501302 5.13672 0.341797 5.39193 0.232422 5.60156C0.123047 5.80208 0.0683594 5.90234 0.0683594 5.90234ZM1.24414 6.16211C1.29883 6.08008 1.35807 5.98438 1.42188 5.875C1.49479 5.75651 1.58138 5.62891 1.68164 5.49219C1.80013 5.31901 1.93685 5.13216 2.0918 4.93164C2.24674 4.73112 2.41536 4.5306 2.59766 4.33008C2.83464 4.06576 3.0944 3.81055 3.37695 3.56445C3.65951 3.31836 3.96484 3.09505 4.29297 2.89453C4.6849 2.64844 5.10417 2.45247 5.55078 2.30664C6.00651 2.16081 6.48958 2.08789 7 2.08789C7.51042 2.08789 7.98893 2.16081 8.43555 2.30664C8.89128 2.45247 9.3151 2.64844 9.70703 2.89453C10.0352 3.09505 10.3405 3.31836 10.623 3.56445C10.9056 3.81055 11.1654 4.06576 11.4023 4.33008C11.5846 4.5306 11.7533 4.73112 11.9082 4.93164C12.0632 5.13216 12.1999 5.31901 12.3184 5.49219C12.4186 5.62891 12.5007 5.75651 12.5645 5.875C12.6374 5.98438 12.7012 6.08008 12.7559 6.16211C12.7012 6.24414 12.6374 6.3444 12.5645 6.46289C12.5007 6.57227 12.4186 6.69987 12.3184 6.8457C12.1999 7.01888 12.0632 7.20573 11.9082 7.40625C11.7533 7.60677 11.5846 7.80729 11.4023 8.00781C11.1654 8.26302 10.9056 8.51367 10.623 8.75977C10.3405 9.00586 10.0352 9.23372 9.70703 9.44336C9.3151 9.68034 8.89128 9.8763 8.43555 10.0312C7.98893 10.1771 7.51042 10.25 7 10.25C6.48958 10.25 6.00651 10.1771 5.55078 10.0312C5.10417 9.8763 4.6849 9.68034 4.29297 9.44336C3.96484 9.23372 3.65951 9.00586 3.37695 8.75977C3.0944 8.51367 2.83464 8.26302 2.59766 8.00781C2.41536 7.80729 2.24674 7.60677 2.0918 7.40625C1.93685 7.20573 1.80013 7.01888 1.68164 6.8457C1.58138 6.69987 1.49479 6.57227 1.42188 6.46289C1.35807 6.3444 1.29883 6.24414 1.24414 6.16211ZM9.33789 6.16211C9.33789 5.8431 9.27409 5.54232 9.14648 5.25977C9.02799 4.97721 8.86393 4.73112 8.6543 4.52148C8.44466 4.31185 8.19401 4.14779 7.90234 4.0293C7.61979 3.90169 7.31901 3.83789 7 3.83789C6.68099 3.83789 6.37565 3.90169 6.08398 4.0293C5.80143 4.14779 5.55534 4.31185 5.3457 4.52148C5.13607 4.73112 4.96745 4.97721 4.83984 5.25977C4.72135 5.54232 4.66211 5.8431 4.66211 6.16211C4.66211 6.49023 4.72135 6.79557 4.83984 7.07812C4.96745 7.36068 5.13607 7.60677 5.3457 7.81641C5.55534 8.02604 5.80143 8.19466 6.08398 8.32227C6.37565 8.44076 6.68099 8.5 7 8.5C7.31901 8.5 7.61979 8.44076 7.90234 8.32227C8.19401 8.19466 8.44466 8.02604 8.6543 7.81641C8.86393 7.60677 9.02799 7.36068 9.14648 7.07812C9.27409 6.79557 9.33789 6.49023 9.33789 6.16211ZM8.16211 6.16211C8.16211 6.32617 8.13021 6.48112 8.06641 6.62695C8.01172 6.76367 7.92969 6.88672 7.82031 6.99609C7.72005 7.09635 7.59701 7.17839 7.45117 7.24219C7.31445 7.30599 7.16406 7.33789 7 7.33789C6.83594 7.33789 6.68099 7.30599 6.53516 7.24219C6.39844 7.17839 6.27995 7.09635 6.17969 6.99609C6.07031 6.88672 5.98372 6.76367 5.91992 6.62695C5.86523 6.48112 5.83789 6.32617 5.83789 6.16211C5.83789 6.00716 5.86523 5.86133 5.91992 5.72461C5.98372 5.57878 6.07031 5.45117 6.17969 5.3418C6.27995 5.23242 6.39844 5.15039 6.53516 5.0957C6.68099 5.0319 6.83594 5 7 5C7.16406 5 7.31445 5.0319 7.45117 5.0957C7.59701 5.15039 7.72005 5.23242 7.82031 5.3418C7.92969 5.45117 8.01172 5.57878 8.06641 5.72461C8.13021 5.86133 8.16211 6.00716 8.16211 6.16211Z"
                fill="currentColor"></path>
    </symbol> 
    <symbol id="add-to-cart" width="14" height="13" viewBox="0 0 14 13" fill="none" xmlns="http://www.w3.org/2000/svg">
        <path d="M10.5454 11.3287C10.3922 11.3287 10.2452 11.2672 10.1369 11.1576C10.0285 11.048 9.96763 10.8994 9.96763 10.7444H8.81201C8.81201 11.2093 8.99464 11.6552 9.31972 11.984C9.6448 12.3128 10.0857 12.4975 10.5454 12.4975C11.0052 12.4975 11.4461 12.3128 11.7711 11.984C12.0962 11.6552 12.2789 11.2093 12.2789 10.7444H11.1232C11.1232 10.8994 11.0624 11.048 10.954 11.1576C10.8456 11.2672 10.6987 11.3287 10.5454 11.3287Z" fill="currentColor"></path>
        <path d="M6.47907 11.3287C6.32583 11.3287 6.17886 11.2672 6.0705 11.1576C5.96214 11.048 5.90127 10.8994 5.90127 10.7444H4.74023C4.74023 10.9749 4.78514 11.2032 4.87238 11.4162C4.95962 11.6292 5.08748 11.8228 5.24868 11.9858C5.40988 12.1488 5.60125 12.2782 5.81186 12.3664C6.02248 12.4546 6.24822 12.5 6.47618 12.5C6.70415 12.5 6.92989 12.4546 7.1405 12.3664C7.35112 12.2782 7.54249 12.1488 7.70368 11.9858C7.86488 11.8228 7.99275 11.6292 8.07999 11.4162C8.16723 11.2032 8.21213 10.9749 8.21213 10.7444H7.05652C7.05652 10.8993 6.99569 11.0479 6.88741 11.1575C6.77913 11.267 6.63225 11.3286 6.47907 11.3287Z" fill="currentColor"></path>
        <path d="M14.0173 1.66048C13.9858 1.65506 13.9539 1.65237 13.9219 1.65244H4.67702C4.52377 1.65244 4.37681 1.71401 4.26845 1.8236C4.16009 1.93319 4.09921 2.08182 4.09921 2.23681C4.09921 2.39179 4.16009 2.54042 4.26845 2.65001C4.37681 2.7596 4.52377 2.82117 4.67702 2.82117H13.2398L13.087 3.74811L12.277 8.66477H4.73949L2.77495 3.74811L1.60308 0.840914C1.54111 0.70415 1.42937 0.596826 1.29113 0.541284C1.15289 0.485742 0.998786 0.486261 0.860911 0.542733C0.723035 0.599206 0.612007 0.70728 0.550938 0.844458C0.489868 0.981637 0.483464 1.13735 0.533058 1.27918L2.40407 5.9223L3.68102 9.34519C3.77528 9.63335 3.96993 9.83349 4.25088 9.83349H12.7663C12.9031 9.83356 13.0355 9.78452 13.14 9.6951C13.2444 9.60568 13.314 9.48168 13.3365 9.34519L14.2589 3.74811L14.4921 2.33286C14.5173 2.18001 14.4814 2.02331 14.3924 1.89722C14.3033 1.77113 14.1684 1.68598 14.0173 1.66048Z" fill="currentColor"></path>
    </symbol>

    <symbol id="menu-toggle" width="22" height="14" viewBox="0 0 22 14" fill="currentColor" xmlns="http://www.w3.org/2000/svg">
        <path d="M2 8H20C20.2812 8 20.5156 7.90625 20.7031 7.71875C20.9062 7.51562 21.0078 7.27344 21.0078 6.99219C21.0078 6.72656 20.9062 6.5 20.7031 6.3125C20.5156 6.10938 20.2812 6.00781 20 6.00781H2C1.71875 6.00781 1.47656 6.10938 1.27344 6.3125C1.08594 6.5 0.992188 6.72656 0.992188 6.99219C0.992188 7.27344 1.08594 7.51562 1.27344 7.71875C1.47656 7.90625 1.71875 8 2 8ZM2 2H20C20.2812 2 20.5156 1.90625 20.7031 1.71875C20.9062 1.51563 21.0078 1.27344 21.0078 0.992188C21.0078 0.726562 20.9062 0.5 20.7031 0.3125C20.5156 0.109375 20.2812 0.0078125 20 0.0078125H2C1.71875 0.0078125 1.47656 0.109375 1.27344 0.3125C1.08594 0.5 0.992188 0.726562 0.992188 0.992188C0.992188 1.27344 1.08594 1.51563 1.27344 1.71875C1.47656 1.90625 1.71875 2 2 2ZM2 14H20C20.2812 14 20.5156 13.9062 20.7031 13.7188C20.9062 13.5156 21.0078 13.2734 21.0078 12.9922C21.0078 12.7266 20.9062 12.5 20.7031 12.3125C20.5156 12.1094 20.2812 12.0078 20 12.0078H2C1.71875 12.0078 1.47656 12.1094 1.27344 12.3125C1.08594 12.5 0.992188 12.7266 0.992188 12.9922C0.992188 13.2734 1.08594 13.5156 1.27344 13.7188C1.47656 13.9062 1.71875 14 2 14Z" fill="currentColor"></path>
    </symbol>

    <symbol id="wishlist-header" xmlns="http://www.w3.org/2000/svg" width="20" height="17" viewBox="0 0 20 17" fill="none">
        <path d="M18.3887 1.55421C17.3506 0.55606 15.9769 0 14.5491 0C13.1212 0 11.7475 0.55606 10.7094 1.55421L10 2.24289L9.29063 1.55421C8.25514 0.549292 6.87729 -0.00765789 5.44682 0.000470637C4.01902 -0.00635871 2.64421 0.550561 1.61125 1.55421C1.10276 2.0382 0.697356 2.6234 0.420188 3.27353C0.14302 3.92365 0 4.62483 0 5.33357C0 6.0423 0.14302 6.74348 0.420188 7.3936C0.697356 8.04373 1.10276 8.62894 1.61125 9.11292L9.4391 16.7724C9.51585 16.8408 9.60199 16.8974 9.6948 16.9404C9.89078 17.0199 10.1092 17.0199 10.3052 16.9404C10.398 16.8974 10.4841 16.8408 10.5609 16.7724L18.3887 9.11292C18.8972 8.62894 19.3026 8.04373 19.5798 7.3936C19.857 6.74348 20 6.0423 20 5.33357C20 4.62483 19.857 3.92365 19.5798 3.27353C19.3026 2.6234 18.8972 2.0382 18.3887 1.55421ZM18.3887 5.31677C18.3911 5.81361 18.2943 6.30576 18.1043 6.7634C17.9143 7.22103 17.6351 7.63463 17.2834 7.97912L10 15.1179L2.7248 7.97912C2.36775 7.63749 2.08319 7.22502 1.88868 6.76713C1.69417 6.30925 1.59382 5.81565 1.59382 5.31677C1.59382 4.81789 1.69417 4.32429 1.88868 3.86641C2.08319 3.40852 2.36775 2.99605 2.7248 2.65442C3.45741 1.94171 4.43359 1.54714 5.44682 1.55421C6.46509 1.5463 7.44671 1.94068 8.18532 2.65442L9.4391 3.88901C9.51585 3.95737 9.60199 4.01396 9.6948 4.05698C9.89078 4.13645 10.1092 4.13645 10.3052 4.05698C10.398 4.01396 10.4841 3.95737 10.5609 3.88901L11.8229 2.65442C12.5555 1.94171 13.5317 1.54714 14.5449 1.55421C15.5632 1.5463 16.5448 1.94068 17.2834 2.65442C17.6381 2.99747 17.9204 3.41042 18.1133 3.86813C18.3061 4.32583 18.4055 4.81872 18.4052 5.31677H18.3887Z" fill="currentColor"/>
    </symbol>

    <symbol id="exit" width="14" height="15" viewBox="0 0 12 11" fill="none" xmlns="http://www.w3.org/2000/svg">
        <path d="M0.972656 1.52148C0.820312 1.38086 0.744141 1.21094 0.744141 1.01172C0.744141 0.800781 0.820312 0.619141 0.972656 0.466797C1.11328 0.326172 1.28906 0.255859 1.5 0.255859C1.71094 0.255859 1.88672 0.326172 2.02734 0.466797L6 4.43945L9.97266 0.466797C10.1133 0.326172 10.2891 0.255859 10.5 0.255859C10.7109 0.255859 10.8867 0.326172 11.0273 0.466797C11.1797 0.619141 11.2559 0.800781 11.2559 1.01172C11.2559 1.21094 11.1797 1.38086 11.0273 1.52148L7.05469 5.49414L11.0273 9.4668C11.1797 9.61914 11.2559 9.80078 11.2559 10.0117C11.2559 10.2109 11.1797 10.3809 11.0273 10.5215C10.8867 10.6738 10.7109 10.75 10.5 10.75C10.2891 10.75 10.1133 10.6738 9.97266 10.5215L6 6.56641L2.02734 10.5215C1.88672 10.6738 1.71094 10.75 1.5 10.75C1.28906 10.75 1.11328 10.6738 0.972656 10.5215C0.820312 10.3809 0.744141 10.2109 0.744141 10.0117C0.744141 9.80078 0.820312 9.61914 0.972656 9.4668L4.94531 5.49414L0.972656 1.52148Z" fill="currentColor"></path>
    </symbol>

    <symbol id="instargram" xmlns="http://www.w3.org/2000/svg" width="36" height="36"
                                                viewBox="0 0 36 36" fill="none">
                                                <circle cx="18" cy="18" r="17.5" stroke="#555555" />
                                                <path
                                                    d="M21.6 12H14.4C13.0745 12 12 13.0745 12 14.4V21.6C12 22.9255 13.0745 24 14.4 24H21.6C22.9255 24 24 22.9255 24 21.6V14.4C24.0001 13.0745 22.9255 12 21.6 12ZM20.4 13.8H22.2V15.6H20.4V13.8ZM18 15.6001C19.3255 15.6001 20.4 16.6746 20.4 18.0001C20.4 19.3255 19.3255 20.4 18 20.4C16.6745 20.4 15.6 19.3255 15.6 18.0001C15.6 16.6746 16.6745 15.6001 18 15.6001ZM22.8 21.6001C22.8 22.2628 22.2627 22.8001 21.6 22.8001H14.4C13.7373 22.8001 13.2 22.2628 13.2 21.6001V17.4H14.46C14.0996 19.3553 15.3926 21.2325 17.3479 21.5929C19.3032 21.9533 21.1804 20.6603 21.5408 18.705C21.5836 18.4725 21.6035 18.2364 21.6 18.0001C21.597 17.7987 21.577 17.598 21.54 17.4001H22.8V21.6001H22.8Z"
                                                    fill="#555555" />
    </symbol>

    <symbol id="tiktok" xmlns="http://www.w3.org/2000/svg" width="36" height="36"
                                                viewBox="0 0 36 36" fill="none">
                                                <circle cx="18" cy="18" r="17.5" stroke="#555555" />
                                                <path
                                                    d="M16.9886 24C15.9308 24 14.9163 23.5966 14.1682 22.8785C13.4202 22.1604 13 21.1864 13 20.1709C13 19.1554 13.4202 18.1814 14.1682 17.4633C14.9163 16.7452 15.9308 16.3418 16.9886 16.3418H17.9625V18.2105H16.9886C16.5841 18.2105 16.1886 18.3257 15.8522 18.5415C15.5159 18.7572 15.2537 19.0639 15.0989 19.4227C14.9441 19.7815 14.9036 20.1764 14.9825 20.5573C15.0614 20.9382 15.2562 21.2881 15.5423 21.5627C15.8283 21.8373 16.1928 22.0243 16.5896 22.1001C16.9864 22.1759 17.3976 22.137 17.7714 21.9883C18.1452 21.8397 18.4646 21.588 18.6894 21.2651C18.9141 20.9422 19.0341 20.5626 19.0341 20.1742V12H20.9807V12.9338C20.9807 13.4546 21.1962 13.9541 21.5798 14.3223C21.9634 14.6906 22.4836 14.8975 23.0261 14.8975H24V16.7629H23.0193C22.2984 16.7639 21.591 16.5753 20.9739 16.2175V20.1709C20.973 21.1856 20.5529 22.1586 19.8058 22.8764C19.0587 23.5942 18.0456 23.9983 16.9886 24Z"
                                                    fill="#555555" />
    </symbol>

    <symbol id="youtube" xmlns="http://www.w3.org/2000/svg" width="36" height="36"
                                                viewBox="0 0 36 36" fill="none">
                                                <circle cx="18" cy="18" r="17.5" stroke="#555555" />
                                                <path
                                                    d="M24.9882 14.5648C24.8236 13.9529 24.3412 13.4706 23.7294 13.3058C22.6117 13 18.1411 13 18.1411 13C18.1411 13 13.6706 13 12.5529 13.2942C11.9529 13.4588 11.4587 13.953 11.2941 14.5648C11 15.6823 11 18 11 18C11 18 11 20.3294 11.2941 21.4352C11.4589 22.047 11.9411 22.5294 12.553 22.6941C13.6823 23 18.1412 23 18.1412 23C18.1412 23 22.6117 23 23.7294 22.7058C24.3413 22.5411 24.8236 22.0588 24.9884 21.447C25.2824 20.3294 25.2824 18.0118 25.2824 18.0118C25.2824 18.0118 25.2942 15.6823 24.9882 14.5648ZM16.7177 20.1412V15.8588L20.4353 18L16.7177 20.1412Z"
                                                    fill="#555555" />
    </symbol>

    <symbol id="twitter" xmlns="http://www.w3.org/2000/svg" width="36" height="36"
                                                viewBox="0 0 36 36" fill="none">
                                                <circle cx="18" cy="18" r="17.5" stroke="#555555" />
                                                <path fill-rule="evenodd" clip-rule="evenodd"
                                                    d="M15.9184 12H12.066L16.5298 18.6281L12 24H13.5877L17.2347 19.6747L20.1476 24H24L19.3764 17.1347L23.7059 12H22.1183L18.6714 16.0879L15.9184 12ZM17.4993 17.9239L14.2821 13.2286H15.2134L17.9508 17.2237L18.3878 17.8614L21.7755 22.8054H20.8442L17.9793 18.6242L17.4993 17.9239Z"
                                                    fill="#555555" />
    </symbol>
    <symbol id="facebook" xmlns="http://www.w3.org/2000/svg" width="36" height="36"
                                                viewBox="0 0 36 36" fill="none">
                                                <circle cx="18" cy="18" r="17.5" stroke="#555555" />
                                                <path
                                                    d="M16.3334 14.6667V16H15V18H16.3334V24H19V18H20.7734L21 16H19V14.8334C19 14.2934 19.0533 14.0067 19.8866 14.0067H21V12H19.2134C17.08 12.0001 16.3334 13 16.3334 14.6667Z"
                                                    fill="#555555" />
                                            </symbol>

    <symbol id="cart-header" xmlns="http://www.w3.org/2000/svg" width="21" height="17" viewBox="0 0 21 17" fill="none">
        <path d="M14.3708 15.3408C14.1519 15.3408 13.942 15.2536 13.7872 15.0983C13.6324 14.9431 13.5454 14.7325 13.5454 14.5129H11.8945C11.8945 15.1716 12.1554 15.8033 12.6198 16.2691C13.0842 16.7348 13.7141 16.9965 14.3708 16.9965C15.0276 16.9965 15.6575 16.7348 16.1219 16.2691C16.5863 15.8033 16.8472 15.1716 16.8472 14.5129H15.1963C15.1963 14.7325 15.1093 14.9431 14.9545 15.0983C14.7997 15.2536 14.5898 15.3408 14.3708 15.3408Z" fill="currentColor"/>
        <path d="M8.56218 15.3408C8.34326 15.3408 8.1333 15.2536 7.97851 15.0983C7.82371 14.9431 7.73674 14.7325 7.73674 14.5129H6.07812C6.07812 14.8396 6.14227 15.163 6.2669 15.4647C6.39153 15.7665 6.5742 16.0407 6.80448 16.2716C7.03476 16.5026 7.30815 16.6858 7.60902 16.8108C7.9099 16.9358 8.23238 17.0001 8.55805 17.0001C8.88372 17.0001 9.2062 16.9358 9.50708 16.8108C9.80796 16.6858 10.0813 16.5026 10.3116 16.2716C10.5419 16.0407 10.7246 15.7665 10.8492 15.4647C10.9738 15.163 11.038 14.8396 11.038 14.5129H9.3871C9.3871 14.7324 9.30021 14.9429 9.14552 15.0981C8.99083 15.2534 8.78101 15.3406 8.56218 15.3408Z" fill="currentColor"/>
        <path d="M19.3299 1.64401C19.2849 1.63633 19.2393 1.63252 19.1937 1.63263H5.9867C5.76778 1.63263 5.55782 1.71985 5.40302 1.8751C5.24823 2.03035 5.16126 2.24092 5.16126 2.46047C5.16126 2.68003 5.24823 2.8906 5.40302 3.04585C5.55782 3.2011 5.76778 3.28832 5.9867 3.28832H18.2192L18.001 4.60149L16.8438 11.5668H6.07595L3.26946 4.60149L1.59537 0.482961C1.50684 0.289212 1.34721 0.13717 1.14972 0.0584856C0.952225 -0.020199 0.732083 -0.0194636 0.535118 0.0605389C0.338153 0.140541 0.179541 0.293646 0.0922992 0.487983C0.00505767 0.682319 -0.00409102 0.902913 0.0667575 1.10384L2.73963 7.68158L4.56385 12.5307C4.6985 12.9389 4.97657 13.2224 5.37794 13.2224H17.5428C17.7383 13.2225 17.9275 13.1531 18.0766 13.0264C18.2258 12.8997 18.3253 12.724 18.3574 12.5307L19.675 4.60149L20.0083 2.59655C20.0443 2.38002 19.993 2.15803 19.8658 1.9794C19.7386 1.80077 19.5458 1.68013 19.3299 1.64401Z" fill="currentColor"/>
    </symbol>

    <symbol id="rencent-view" width="17" height="18" viewBox="0 0 17 18" fill="currentColor" xmlns="http://www.w3.org/2000/svg">
        <path
            d="M16.99 8.495C16.99 7.91538 16.9357 7.34784 16.827 6.79238C16.7062 6.23691 16.5372 5.7056 16.3198 5.19843C16.1145 4.69127 15.8549 4.20826 15.541 3.74939C15.2391 3.29053 14.8949 2.86789 14.5085 2.48148C14.1221 2.10715 13.6995 1.763 13.2406 1.44904C12.7938 1.14716 12.3168 0.887537 11.8097 0.670181C11.3025 0.452825 10.7712 0.289808 10.2157 0.18113C9.66027 0.0603767 9.08669 0 8.495 0C7.90331 0 7.32973 0.0603767 6.77426 0.18113C6.2188 0.289808 5.68748 0.452825 5.18032 0.670181C4.67316 0.887537 4.19618 1.14716 3.74939 1.44904C3.29053 1.763 2.86789 2.10715 2.48148 2.48148C2.09507 2.86789 1.75092 3.29053 1.44904 3.74939C1.13508 4.20826 0.869424 4.69127 0.652068 5.19843C0.446787 5.7056 0.28377 6.23691 0.163017 6.79238C0.054339 7.34784 0 7.91538 0 8.495C0 9.08669 0.054339 9.66027 0.163017 10.2157C0.28377 10.7712 0.446787 11.3025 0.652068 11.8097C0.869424 12.3168 1.13508 12.7999 1.44904 13.2587C1.75092 13.7055 2.09507 14.1221 2.48148 14.5085C2.86789 14.8949 3.29053 15.2391 3.74939 15.541C4.19618 15.8549 4.67316 16.1206 5.18032 16.3379C5.68748 16.5553 6.2188 16.7183 6.77426 16.827C7.32973 16.9477 7.90331 17.0081 8.495 17.0081C9.08669 17.0081 9.66027 16.9477 10.2157 16.827C10.7712 16.7183 11.3025 16.5553 11.8097 16.3379C12.3168 16.1206 12.7938 15.8549 13.2406 15.541C13.6995 15.2391 14.1221 14.8949 14.5085 14.5085C14.8949 14.1221 15.2391 13.7055 15.541 13.2587C15.8549 12.7999 16.1145 12.3168 16.3198 11.8097C16.5372 11.3025 16.7062 10.7712 16.827 10.2157C16.9357 9.66027 16.99 9.08669 16.99 8.495ZM15.4504 8.495C15.4504 9.46103 15.2693 10.3667 14.907 11.212C14.5447 12.0572 14.0497 12.7938 13.4217 13.4217C12.7817 14.0497 12.0391 14.5447 11.1938 14.907C10.3606 15.2693 9.46103 15.4504 8.495 15.4504C7.52897 15.4504 6.62332 15.2693 5.77805 14.907C4.94485 14.5447 4.20826 14.0497 3.56826 13.4217C2.94034 12.7938 2.44526 12.0572 2.083 11.212C1.72074 10.3667 1.53961 9.46103 1.53961 8.495C1.53961 7.54105 1.72074 6.64144 2.083 5.79616C2.44526 4.95089 2.94034 4.21429 3.56826 3.58638C4.20826 2.95846 4.94485 2.46337 5.77805 2.10111C6.62332 1.72677 7.52897 1.53961 8.495 1.53961C9.46103 1.53961 10.3606 1.72677 11.1938 2.10111C12.0391 2.46337 12.7817 2.95846 13.4217 3.58638C14.0497 4.21429 14.5447 4.95089 14.907 5.79616C15.2693 6.64144 15.4504 7.54105 15.4504 8.495ZM7.71614 3.85807V8.495C7.71614 8.65198 7.75237 8.79085 7.82482 8.9116C7.90935 9.03235 8.01802 9.12292 8.15085 9.1833L11.2482 10.741C11.4293 10.8376 11.6225 10.8557 11.8278 10.7954C12.0331 10.7229 12.184 10.5901 12.2806 10.3969C12.3772 10.2037 12.3893 10.0044 12.3168 9.79914C12.2565 9.59386 12.1297 9.44291 11.9365 9.34631L9.27386 8.02406V3.85807C9.27386 3.65279 9.19537 3.4777 9.03839 3.33279C8.89349 3.17581 8.71236 3.09732 8.495 3.09732C8.27764 3.09732 8.09048 3.17581 7.9335 3.33279C7.78859 3.4777 7.71614 3.65279 7.71614 3.85807Z">
        </path>
    </symbol>

    <symbol id="icon-account" width="17" height="17" viewBox="0 0 17 17" fill="currentColor" xmlns="http://www.w3.org/2000/svg">
        <path d="M16.8927 15.7682C16.0329 14.3137 14.8061 13.1078 13.3338 12.27C11.8614 11.4322 10.1946 10.9914 8.49845 10.9914C6.80225 10.9914 5.13546 11.4322 3.66314 12.27C2.19082 13.1078 0.964024 14.3137 0.104236 15.7682C-0.00102398 15.9568 -0.027822 16.179 0.0295835 16.387C0.0566587 16.493 0.106188 16.592 0.174854 16.6774C0.243521 16.7627 0.329737 16.8325 0.427728 16.8821C0.554141 16.9534 0.697158 16.9903 0.842462 16.9894C0.986554 16.9954 1.12952 16.9616 1.25545 16.8917C1.38138 16.8218 1.48536 16.7185 1.5558 16.5933C2.26752 15.3886 3.2833 14.3898 4.50251 13.6958C5.72172 13.0018 7.10204 12.6367 8.50674 12.6367C9.91144 12.6367 11.2918 13.0018 12.511 13.6958C13.7302 14.3898 14.746 15.3886 15.4577 16.5933C15.5685 16.7806 15.7491 16.9169 15.9603 16.9725C16.1715 17.0281 16.3963 16.9986 16.5858 16.8903C16.6801 16.8403 16.7628 16.7711 16.8285 16.6872C16.8943 16.6034 16.9415 16.5067 16.9673 16.4035C16.998 16.298 17.0072 16.1874 16.9944 16.0783C16.9816 15.9692 16.947 15.8638 16.8927 15.7682Z"></path>
        <path d="M8.49966 10.2C9.83622 10.2002 11.1195 9.67091 12.0732 8.72594C13.027 7.78097 13.5752 6.49588 13.5997 5.14718C13.5997 3.78206 13.0623 2.47286 12.1059 1.50757C11.1495 0.542291 9.85226 0 8.49966 0C7.14705 0 5.84985 0.542291 4.89341 1.50757C3.93698 2.47286 3.39966 3.78206 3.39966 5.14718C3.42416 6.49588 3.97228 7.78097 4.92607 8.72594C5.87987 9.67091 7.1631 10.2002 8.49966 10.2ZM5.09966 5.14718C5.09966 4.2371 5.45787 3.3643 6.09549 2.72078C6.73312 2.07725 7.59792 1.71573 8.49966 1.71573C9.40139 1.71573 10.2662 2.07725 10.9038 2.72078C11.5414 3.3643 11.8997 4.2371 11.8997 5.14718C11.8997 6.05726 11.5414 6.93006 10.9038 7.57359C10.2662 8.21711 9.40139 8.57864 8.49966 8.57864C7.59792 8.57864 6.73312 8.21711 6.09549 7.57359C5.45787 6.93006 5.09966 6.05726 5.09966 5.14718Z"></path>
    </symbol>

    <symbol id="icon-wishlist" width="21" height="17" viewBox="0 0 14 13" fill="currentColor" xmlns="http://www.w3.org/2000/svg">
        <path d="M11.7441 2.26562C11.9993 2.52083 12.1908 2.8125 12.3184 3.14062C12.446 3.45964 12.5098 3.78776 12.5098 4.125C12.5098 4.46224 12.446 4.79492 12.3184 5.12305C12.1908 5.44206 11.9993 5.72917 11.7441 5.98438L7 10.7285L2.25586 5.98438C2.00065 5.72917 1.80924 5.44206 1.68164 5.12305C1.55404 4.79492 1.49023 4.46224 1.49023 4.125C1.49023 3.78776 1.55404 3.45964 1.68164 3.14062C1.80924 2.8125 2.00065 2.52083 2.25586 2.26562C2.51107 2.01042 2.79818 1.81901 3.11719 1.69141C3.44531 1.5638 3.77799 1.5 4.11523 1.5C4.45247 1.5 4.7806 1.5638 5.09961 1.69141C5.41862 1.81901 5.71029 2.01042 5.97461 2.26562L6.58984 2.88086C6.69922 2.99935 6.83594 3.05859 7 3.05859C7.16406 3.05859 7.30078 2.99935 7.41016 2.88086L8.02539 2.26562C8.28971 2.01042 8.58138 1.81901 8.90039 1.69141C9.2194 1.5638 9.54753 1.5 9.88477 1.5C10.222 1.5 10.5501 1.5638 10.8691 1.69141C11.1973 1.81901 11.4889 2.01042 11.7441 2.26562ZM12.5645 1.44531C12.1999 1.07161 11.7806 0.79362 11.3066 0.611328C10.8418 0.429036 10.3678 0.337891 9.88477 0.337891C9.40169 0.337891 8.92773 0.429036 8.46289 0.611328C7.99805 0.79362 7.57878 1.07161 7.20508 1.44531L7 1.65039L6.79492 1.44531C6.42122 1.07161 6.00195 0.79362 5.53711 0.611328C5.07227 0.429036 4.59831 0.337891 4.11523 0.337891C3.63216 0.337891 3.15365 0.429036 2.67969 0.611328C2.21484 0.79362 1.80013 1.07161 1.43555 1.44531C1.06185 1.8099 0.779297 2.22917 0.587891 2.70312C0.405599 3.16797 0.314453 3.64193 0.314453 4.125C0.314453 4.60807 0.405599 5.08659 0.587891 5.56055C0.779297 6.02539 1.06185 6.4401 1.43555 6.80469L6.58984 11.959C6.69922 12.0775 6.83594 12.1367 7 12.1367C7.16406 12.1367 7.30078 12.0775 7.41016 11.959L12.5645 6.80469C12.9382 6.4401 13.2161 6.02539 13.3984 5.56055C13.5898 5.08659 13.6855 4.60807 13.6855 4.125C13.6855 3.64193 13.5898 3.16797 13.3984 2.70312C13.2161 2.23828 12.9382 1.81901 12.5645 1.44531Z"></path>
    </symbol>

    <symbol id="icon-cart" width="21" height="17" viewBox="0 0 21 17" fill="currentColor" xmlns="http://www.w3.org/2000/svg">
        <path d="M14.3699 15.3407C14.1509 15.3407 13.941 15.2535 13.7862 15.0982C13.6314 14.943 13.5444 14.7324 13.5444 14.5128H11.8936C11.8936 15.1715 12.1545 15.8032 12.6189 16.269C13.0832 16.7347 13.7131 16.9964 14.3699 16.9964C15.0266 16.9964 15.6565 16.7347 16.1209 16.269C16.5853 15.8032 16.8462 15.1715 16.8462 14.5128H15.1953C15.1953 14.7324 15.1083 14.943 14.9535 15.0982C14.7987 15.2535 14.5888 15.3407 14.3699 15.3407Z"></path>
        <path d="M8.5612 15.3407C8.34228 15.3407 8.13233 15.2535 7.97753 15.0982C7.82273 14.943 7.73576 14.7324 7.73576 14.5128H6.07715C6.07715 14.8395 6.14129 15.1629 6.26592 15.4646C6.39055 15.7664 6.57322 16.0406 6.8035 16.2715C7.03378 16.5025 7.30717 16.6857 7.60805 16.8107C7.90893 16.9357 8.23141 17 8.55707 17C8.88274 17 9.20522 16.9357 9.5061 16.8107C9.80698 16.6857 10.0804 16.5025 10.3106 16.2715C10.5409 16.0406 10.7236 15.7664 10.8482 15.4646C10.9729 15.1629 11.037 14.8395 11.037 14.5128H9.38612C9.38612 14.7323 9.29923 14.9428 9.14454 15.098C8.98985 15.2533 8.78003 15.3406 8.5612 15.3407Z"></path>
        <path d="M19.3299 1.64401C19.2849 1.63633 19.2393 1.63252 19.1937 1.63263H5.9867C5.76778 1.63263 5.55782 1.71985 5.40302 1.8751C5.24823 2.03035 5.16126 2.24092 5.16126 2.46047C5.16126 2.68003 5.24823 2.8906 5.40302 3.04585C5.55782 3.2011 5.76778 3.28832 5.9867 3.28832H18.2192L18.001 4.60149L16.8438 11.5668H6.07595L3.26946 4.60149L1.59537 0.482961C1.50684 0.289212 1.34721 0.13717 1.14972 0.0584856C0.952225 -0.020199 0.732083 -0.0194636 0.535118 0.0605389C0.338153 0.140541 0.179541 0.293646 0.0922992 0.487983C0.00505767 0.682319 -0.00409102 0.902913 0.0667575 1.10384L2.73963 7.68158L4.56385 12.5307C4.6985 12.9389 4.97657 13.2224 5.37794 13.2224H17.5428C17.7383 13.2225 17.9275 13.1531 18.0766 13.0264C18.2258 12.8997 18.3253 12.724 18.3574 12.5307L19.675 4.60149L20.0083 2.59655C20.0443 2.38002 19.993 2.15803 19.8658 1.9794C19.7386 1.80077 19.5458 1.68013 19.3299 1.64401Z"></path>
    </symbol>

    <symbol id="icon-shop" width="17" height="17" viewBox="0 0 17 17" fill="none" xmlns="http://www.w3.org/2000/svg">
         <path d="M1.57253 7.89728V11.3668C1.57253 14.8364 2.96343 16.2273 6.43298 16.2273H10.598C14.0675 16.2273 15.4584 14.8364 15.4584 11.3668V7.89728"
            stroke="#111111" stroke-width="1.4" stroke-linecap="round" stroke-linejoin="round"></path>
        <path
            d="M8.51934 8.49998C9.93343 8.49998 10.9766 7.34861 10.8375 5.93452L10.3275 0.772705H6.71888L6.20116 5.93452C6.06207 7.34861 7.10525 8.49998 8.51934 8.49998Z"
            stroke="#111111" stroke-width="1.4" stroke-linecap="round" stroke-linejoin="round"></path>
        <path
            d="M13.3953 8.49998C14.9562 8.49998 16.0998 7.23271 15.9453 5.67952L15.7289 3.55452C15.4507 1.54543 14.678 0.772705 12.6534 0.772705H10.2966L10.8375 6.18952C10.9689 7.46452 12.1203 8.49998 13.3953 8.49998Z"
            stroke="#111111" stroke-width="1.4" stroke-linecap="round" stroke-linejoin="round"></path>
        <path
            d="M3.60479 8.49998C4.87979 8.49998 6.03116 7.46452 6.15479 6.18952L6.32479 4.4818L6.6957 0.772705H4.33888C2.31434 0.772705 1.54161 1.54543 1.26343 3.55452L1.05479 5.67952C0.900247 7.23271 2.04388 8.49998 3.60479 8.49998Z"
             stroke="#111111" stroke-width="1.4" stroke-linecap="round" stroke-linejoin="round"></path>
        <path
            d="M8.51934 12.3636C7.22889 12.3636 6.58752 13.005 6.58752 14.2955V16.2273H10.4512V14.2955C10.4512 13.005 9.8098 12.3636 8.51934 12.3636Z"
            stroke="#111111" stroke-width="1.4" stroke-linecap="round" stroke-linejoin="round"></path>
    </symbol>

    <symbol id="icon-home" width="17" height="17" viewBox="0 0 17 17" fill="none" xmlns="http://www.w3.org/2000/svg">
        <path d="M8.50129 13.283V10.9648" stroke="#212529" stroke-width="1.5" stroke-linecap="round" stroke-linejoin="round"></path>
        <path d="M7.00993 1.55299L1.65493 5.84163C1.0522 6.32072 0.665836 7.33299 0.7972 8.09027L1.82493 14.2412C2.01038 15.3384 3.06129 16.2271 4.17402 16.2271H12.8286C13.9336 16.2271 14.9922 15.3307 15.1777 14.2412L16.2054 8.09027C16.329 7.33299 15.9427 6.32072 15.3477 5.84163L9.99265 1.56072C9.16584 0.896174 7.82902 0.896174 7.00993 1.55299Z" stroke="#212529" stroke-width="1.5" stroke-linecap="round" stroke-linejoin="round"></path>
    </symbol>

    <symbol id="shipping" width="20" height="14" viewBox="0 0 20 14" fill="none" xmlns="http://www.w3.org/2000/svg">
        <path d="M18.8015 6.61104L17.711 5.59952C17.6367 5.53058 17.5796 5.44506 17.5446 5.34991L16.6882 3.0245C16.5657 2.69678 16.3463 2.41417 16.0591 2.21432C15.772 2.01448 15.4307 1.90691 15.0809 1.90594H13.7833V1.54193C13.7833 1.38539 13.7212 1.23526 13.6105 1.12457C13.4998 1.01388 13.3496 0.951691 13.1931 0.951691H5.35161C5.23493 0.950317 5.12232 0.9945 5.03771 1.07485C4.9531 1.1552 4.90316 1.26538 4.89851 1.38197C4.89743 1.44025 4.90796 1.49816 4.92951 1.55232C4.95106 1.60648 4.98319 1.65581 5.02402 1.69741C5.06485 1.73901 5.11356 1.77206 5.16731 1.79462C5.22106 1.81718 5.27876 1.8288 5.33705 1.8288H12.9062V5.63436C12.9062 5.7909 12.9684 5.94103 13.0791 6.05172C13.1898 6.16242 13.3399 6.2246 13.4964 6.2246H17.061L18.1197 7.17734V10.7313H17.1599C17.0643 10.3131 16.8296 9.93972 16.4942 9.6723C16.1587 9.40487 15.7424 9.25924 15.3134 9.25924C14.8845 9.25924 14.4682 9.40487 14.1327 9.6723C13.7973 9.93972 13.5626 10.3131 13.467 10.7313H10.5136C10.4181 10.3131 10.1833 9.93972 9.84791 9.6723C9.51247 9.40487 9.09619 9.25924 8.66719 9.25924C8.2382 9.25924 7.82191 9.40487 7.48648 9.6723C7.15104 9.93972 6.91633 10.3131 6.82075 10.7313H5.35157C5.23488 10.7299 5.12226 10.7741 5.03765 10.8545C4.95305 10.9349 4.90313 11.0451 4.89851 11.1617C4.89743 11.22 4.90796 11.2779 4.92951 11.332C4.95106 11.3862 4.98319 11.4355 5.02402 11.4771C5.06485 11.5187 5.11357 11.5518 5.16731 11.5743C5.22106 11.5969 5.27876 11.6085 5.33705 11.6085H6.82814C6.92972 12.0194 7.16602 12.3845 7.49933 12.6455C7.83265 12.9064 8.24376 13.0482 8.66707 13.0482C9.09038 13.0482 9.5015 12.9064 9.83481 12.6455C10.1681 12.3845 10.4044 12.0194 10.506 11.6085H13.4745C13.576 12.0194 13.8123 12.3845 14.1457 12.6455C14.479 12.9064 14.8901 13.0482 15.3134 13.0482C15.7367 13.0482 16.1478 12.9064 16.4811 12.6455C16.8144 12.3845 17.0507 12.0194 17.1523 11.6085H18.4066C18.5631 11.6085 18.7133 11.5463 18.824 11.4356C18.9346 11.325 18.9968 11.1748 18.9968 11.0183V7.04972C18.9968 6.967 18.9794 6.88521 18.9457 6.80965C18.9121 6.73409 18.8629 6.66642 18.8015 6.61104ZM13.7833 5.34759V2.78302H15.0809C15.2517 2.78348 15.4183 2.836 15.5585 2.93358C15.6987 3.03116 15.8059 3.16915 15.8656 3.32917L16.6132 5.34759H13.7833ZM8.66709 12.171C8.46588 12.171 8.26919 12.1113 8.10189 11.9995C7.9346 11.8877 7.8042 11.7288 7.72721 11.543C7.65021 11.3571 7.63007 11.1525 7.66932 10.9552C7.70858 10.7578 7.80547 10.5766 7.94775 10.4343C8.09003 10.292 8.2713 10.1951 8.46864 10.1559C8.66598 10.1166 8.87053 10.1368 9.05642 10.2138C9.24231 10.2908 9.40119 10.4212 9.51297 10.5885C9.62475 10.7558 9.68441 10.9525 9.68441 11.1537C9.6841 11.4234 9.57682 11.682 9.3861 11.8727C9.19538 12.0634 8.9368 12.1707 8.66709 12.171ZM15.3134 12.171C15.1122 12.171 14.9155 12.1113 14.7482 11.9995C14.5809 11.8877 14.4505 11.7289 14.3735 11.543C14.2965 11.3571 14.2764 11.1525 14.3156 10.9552C14.3549 10.7578 14.4518 10.5766 14.594 10.4343C14.7363 10.292 14.9176 10.1951 15.1149 10.1559C15.3123 10.1166 15.5168 10.1368 15.7027 10.2138C15.8886 10.2908 16.0475 10.4212 16.1593 10.5885C16.271 10.7558 16.3307 10.9525 16.3307 11.1537C16.3304 11.4234 16.2231 11.682 16.0324 11.8727C15.8417 12.0634 15.5831 12.1707 15.3134 12.171Z" fill="currentColor" stroke="currentColor" stroke-width="0.3"></path>
        <path d="M3.46986 4.28249H8.44355C8.55988 4.28249 8.67144 4.23628 8.7537 4.15403C8.83595 4.07177 8.88216 3.96021 8.88216 3.84388C8.88216 3.72756 8.83595 3.61599 8.7537 3.53374C8.67144 3.45148 8.55988 3.40527 8.44355 3.40527H3.46986C3.35353 3.40527 3.24197 3.45148 3.15972 3.53374C3.07746 3.61599 3.03125 3.72756 3.03125 3.84388C3.03125 3.96021 3.07746 4.07177 3.15972 4.15403C3.24197 4.23628 3.35353 4.28249 3.46986 4.28249Z" fill="currentColor" stroke="currentColor" stroke-width="0.3"></path>
        <path d="M8.87579 6.27994C8.87579 6.16361 8.82958 6.05205 8.74732 5.96979C8.66507 5.88754 8.55351 5.84133 8.43718 5.84133H1.43472C1.3768 5.84081 1.31934 5.85177 1.26567 5.87358C1.21201 5.89539 1.16319 5.92761 1.12204 5.96839C1.0809 6.00917 1.04824 6.05769 1.02595 6.11116C1.00366 6.16463 0.992188 6.22199 0.992188 6.27992C0.992188 6.33785 1.00366 6.3952 1.02595 6.44867C1.04824 6.50214 1.0809 6.55067 1.12204 6.59145C1.16319 6.63223 1.21201 6.66445 1.26567 6.68626C1.31934 6.70807 1.3768 6.71903 1.43472 6.71851H8.43718C8.5535 6.71851 8.66506 6.6723 8.74731 6.59006C8.82957 6.50781 8.87578 6.39626 8.87579 6.27994Z" fill="currentColor" stroke="currentColor" stroke-width="0.3"></path>
        <path d="M6.10138 8.71641C6.10138 8.65881 6.09003 8.60178 6.06799 8.54857C6.04595 8.49536 6.01365 8.44701 5.97292 8.40629C5.9322 8.36556 5.88385 8.33326 5.83064 8.31122C5.77743 8.28918 5.7204 8.27783 5.6628 8.27783H2.61437C2.49873 8.27887 2.38818 8.32553 2.30677 8.40767C2.22536 8.48981 2.17969 8.60078 2.17969 8.71642C2.17969 8.83207 2.22536 8.94304 2.30677 9.02518C2.38818 9.10732 2.49873 9.15398 2.61437 9.15502H5.6628C5.77912 9.15501 5.89068 9.10879 5.97292 9.02654C6.05517 8.94428 6.10138 8.83273 6.10138 8.71641Z" fill="currentColor" stroke="currentColor" stroke-width="0.3"></path>
    </symbol>

    <symbol id="empty" width="62" height="69" viewBox="0 0 62 69" fill="none" xmlns="http://www.w3.org/2000/svg">
        <path fill-rule="evenodd" clip-rule="evenodd" d="M2.08737 28.4645C2.08737 28.4645 2.08737 28.4645 2.08737 28.4645L2.73622 31.7945C2.84185 32.3366 2.48803 32.8616 1.94594 32.9673C1.40385 33.0729 0.878769 32.7191 0.773143 32.177L0.124283 28.847C-0.665369 24.7938 2.40693 21 6.52744 21H55.4733C59.5451 21 62.6061 24.7104 61.898 28.7297L55.7575 63.5715C55.2054 66.7055 52.5032 69 49.3328 69H13.9327C10.8871 69 8.25497 66.8784 7.57386 63.8981C7.57386 63.8981 7.57386 63.8981 7.57386 63.8981L6.61662 59.71C6.49356 59.1716 6.83027 58.6354 7.36867 58.5123C7.90707 58.3893 8.44328 58.726 8.56634 59.2644L9.52358 63.4524C9.99963 65.5355 11.8324 67 13.9327 67H49.3328C51.5189 67 53.4017 65.416 53.7878 63.2245L59.9283 28.3827C60.4248 25.565 58.2786 23 55.4733 23H6.52744C3.68849 23 1.53379 25.623 2.08737 28.4645Z" fill="#DEDEDE"></path>
        <path d="M28.9027 2.47902C29.391 1.74918 29.1972 0.760308 28.4699 0.27033C27.7425 -0.219647 26.7571 -0.0251418 26.2688 0.704705L9.76598 25.3734C9.2777 26.1032 9.47153 27.0921 10.1988 27.5821C10.9262 28.072 11.9116 27.8775 12.3999 27.1477L28.9027 2.47902Z" fill="#DEDEDE"></path>
        <path d="M49.6341 26.9818C50.3923 27.422 51.3625 27.162 51.8014 26.401C52.2397 25.6401 51.9806 24.6664 51.2224 24.2262L31.0853 12.5365C30.327 12.0963 29.3567 12.3563 28.9181 13.1173C28.4794 13.8781 28.7385 14.8518 29.4967 15.292L49.6341 26.9818Z" fill="#DEDEDE"></path>
        <path fill-rule="evenodd" clip-rule="evenodd" d="M31.0099 46.9028C30.7467 46.9639 30.423 47.2225 30.2155 47.4984C29.7609 48.1028 28.9649 48.1704 28.4376 47.6495C27.9102 47.1285 27.8512 46.2162 28.3058 45.6118C28.7285 45.0498 29.5089 44.3029 30.5098 44.0707C31.0378 43.9482 31.6328 43.9702 32.2308 44.2541C32.8242 44.5358 33.335 45.0345 33.7603 45.7078C34.1687 46.354 34.0425 47.2573 33.4786 47.7253C32.9147 48.1933 32.1266 48.0487 31.7183 47.4024C31.5084 47.0702 31.3454 46.9614 31.266 46.9237C31.1911 46.8882 31.114 46.8787 31.0099 46.9028Z" fill="#DEDEDE"></path>
        <path d="M22.5 42C23.3284 42 24 41.3284 24 40.5C24 39.6716 23.3284 39 22.5 39C21.6716 39 21 39.6716 21 40.5C21 41.3284 21.6716 42 22.5 42Z" fill="#DEDEDE"></path>
        <path d="M39.5 42C40.3287 42 41 41.3284 41 40.5C41 39.6716 40.3287 39 39.5 39C38.6713 39 38 39.6716 38 40.5C38 41.3284 38.6713 42 39.5 42Z" fill="#DEDEDE"></path>
    </symbol>

    <symbol id="remove" width="20px" height="20px" viewBox="-0.7 -0.7 24.80 24.80" fill="none" xmlns="http://www.w3.org/2000/svg" stroke="#999999">
        <g id="SVGRepo_bgCarrier_1" stroke-width="0"></g>
        <g id="SVGRepo_tracerCarrier_1" stroke-linecap="round" stroke-linejoin="round" stroke="#CCCCCC" stroke-width="0.144"></g>
        <g id="SVGRepo_iconCarrier_1">
            <path d="M4 6H20M16 6L15.7294 5.18807C15.4671 4.40125 15.3359 4.00784 15.0927 3.71698C14.8779 3.46013 14.6021 3.26132 14.2905 3.13878C13.9376 3 13.523 3 12.6936 3H11.3064C10.477 3 10.0624 3 9.70951 3.13878C9.39792 3.26132 9.12208 3.46013 8.90729 3.71698C8.66405 4.00784 8.53292 4.40125 8.27064 5.18807L8 6M18 6V16.2C18 17.8802 18 18.7202 17.673 19.362C17.3854 19.9265 16.9265 20.3854 16.362 20.673C15.7202 21 14.8802 21 13.2 21H10.8C9.11984 21 8.27976 21 7.63803 20.673C7.07354 20.3854 6.6146 19.9265 6.32698 19.362C6 18.7202 6 17.8802 6 16.2V6M14 10V17M10 10V17" stroke="#999999" stroke-width="1.8" stroke-linecap="round" stroke-linejoin="round"></path>
        </g>
    </symbol>

    <symbol id="edit" width="20px" height="20px" viewBox="-1 0 24 24" fill="none" xmlns="http://www.w3.org/2000/svg" stroke="#000000" stroke-width="0.00024000000000000003">
        <g id="SVGRepo_bgCarrier_2" stroke-width="0"></g>
        <g id="SVGRepo_tracerCarrier_2" stroke-linecap="round" stroke-linejoin="round"></g>
        <g id="SVGRepo_iconCarrier_2">
            <path fill-rule="evenodd" clip-rule="evenodd" d="M14.0992 2.39109C15.6207 0.869636 18.0875 0.869636 19.6089 2.39109C21.1304 3.91255 21.1304 6.37932 19.6089 7.90077L12.0149 15.4948C11.5869 15.9228 11.3255 16.1842 11.0342 16.4115C10.691 16.6792 10.3196 16.9087 9.92667 17.096C9.59315 17.2549 9.24244 17.3718 8.66818 17.5632L5.99553 18.4541L5.35386 18.668C4.77951 18.8594 4.14629 18.7099 3.7182 18.2818C3.2901 17.8537 3.14062 17.2205 3.33207 16.6462L4.43683 13.3318C4.62822 12.7576 4.7451 12.4069 4.90405 12.0734C5.09132 11.6804 5.32084 11.309 5.58856 10.9658C5.81578 10.6745 6.07719 10.4131 6.50525 9.98509L14.0992 2.39109ZM5.96092 16.8845L5.11556 16.0391L5.84398 13.8538C6.05606 13.2176 6.14366 12.9589 6.25814 12.7187C6.39854 12.4241 6.57061 12.1457 6.77132 11.8883C6.93497 11.6785 7.12718 11.4845 7.60141 11.0102L13.4924 5.11927C13.7355 5.72927 14.147 6.46549 14.8408 7.15927C15.5345 7.85306 16.2708 8.26447 16.8807 8.50764L10.9898 14.3986C10.5155 14.8728 10.3215 15.065 10.1117 15.2287C9.85436 15.4294 9.57594 15.6015 9.28134 15.7419C9.04113 15.8564 8.78244 15.944 8.14619 16.156L5.96092 16.8845ZM18.076 7.31241C17.9521 7.28522 17.7973 7.24432 17.6213 7.18325C17.1373 7.01532 16.5006 6.69778 15.9014 6.09861C15.3022 5.49944 14.9847 4.86276 14.8168 4.37873C14.7557 4.2027 14.7148 4.04787 14.6876 3.92404L15.1599 3.45175C16.0956 2.51608 17.6126 2.51608 18.5483 3.45175C19.4839 4.38742 19.4839 5.90444 18.5483 6.84011L18.076 7.31241ZM3.25002 22C3.25002 21.5858 3.58581 21.25 4.00002 21.25H20V22.75H4.00002C3.58581 22.75 3.25002 22.4142 3.25002 22Z" fill="#999999"></path>
        </g>
    </symbol>

    <symbol id="note" width="15" height="16" viewBox="0 0 15 16" fill="none" xmlns="http://www.w3.org/2000/svg">
                                                            <path d="M10.8642 1.18519V0.691358C10.8642 0.296296 10.5679 0 10.1728 0C9.77778 0 9.48148 0.395062 9.48148 0.691358V1.08642H5.03704V0.691358C5.03704 0.395062 4.74074 0 4.34568 0C3.95062 0 3.65432 0.395062 3.65432 0.691358V1.18519C1.28395 1.38272 0 2.96296 0 5.4321V11.6543C0 14.4198 1.58025 16 4.34568 16H10.1728C12.9383 16 14.5185 14.4198 14.5185 11.6543V5.4321C14.5185 2.96296 13.2346 1.38272 10.8642 1.18519ZM4.34568 3.55556C4.64198 3.55556 5.03704 3.25926 5.03704 2.8642V2.46914H9.48148V2.8642C9.48148 3.25926 9.87654 3.55556 10.1728 3.55556C10.4691 3.55556 10.8642 3.25926 10.8642 2.8642V2.46914C12.4444 2.66667 13.1358 3.65432 13.1358 5.4321V11.6543C13.1358 13.7284 12.1481 14.6173 10.1728 14.6173H4.34568C2.27161 14.6173 1.38272 13.6296 1.38272 11.6543V5.33333C1.38272 3.55556 2.07407 2.5679 3.65432 2.37037V2.76543C3.65432 3.25926 3.95062 3.55556 4.34568 3.55556Z" fill="#111111"></path>
                                                            <path d="M4.34565 8.00019H10.1728C10.4691 8.00019 10.8642 7.7039 10.8642 7.30884C10.8642 6.91377 10.4691 6.61748 10.1728 6.61748H4.34565C3.95059 6.61748 3.6543 6.91377 3.6543 7.30884C3.6543 7.7039 4.04936 8.00019 4.34565 8.00019Z" fill="#111111"></path>
                                                            <path d="M7.30862 10.2715H4.34565C3.95059 10.2715 3.6543 10.5678 3.6543 10.9629C3.6543 11.3579 4.04936 11.6542 4.34565 11.6542H7.30862C7.60491 11.6542 7.99998 11.3579 7.99998 10.9629C7.99998 10.5678 7.60491 10.2715 7.30862 10.2715Z" fill="#111111"></path>
                                                        </symbol>

    <symbol id="note-2" width="16" height="19" viewBox="0 0 16 19" fill="none" xmlns="http://www.w3.org/2000/svg">
                                                <path d="M8 19C7.64751 18.9861 7.30248 18.892 6.99001 18.7246C6.67753 18.5573 6.40545 18.3208 6.19355 18.0324L5.33333 16.8009C5.1621 16.5756 4.91824 16.4198 4.64516 16.3611C4.51054 16.3542 4.37645 16.383 4.25588 16.4446C4.13532 16.5063 4.03236 16.5987 3.95699 16.713C2.75269 18.0324 1.80645 17.9444 1.29032 17.7685C0.774193 17.5926 0 16.9769 0 15.0417V5.10185C0 1.23148 1.11828 0 4.73118 0H11.2688C13.1613 0 14.1935 0.263889 14.9677 1.05556C15.7419 1.84722 16 2.99074 16 5.10185V15.0417C16 16.9769 15.2258 17.5926 14.7097 17.7685C14.1935 17.9444 13.3333 18.0324 12.043 16.713C11.9676 16.5987 11.8647 16.5063 11.7441 16.4446C11.6236 16.383 11.4895 16.3542 11.3548 16.3611C11.2136 16.3709 11.0769 16.4161 10.9568 16.4928C10.8368 16.5695 10.7371 16.6754 10.6667 16.8009L9.80645 17.9444C9.61207 18.2574 9.34592 18.5171 9.03112 18.7011C8.71632 18.885 8.36237 18.9876 8 19ZM4.64516 15.0417H4.73118C5.05924 15.0584 5.37867 15.1549 5.66293 15.3232C5.94719 15.4914 6.18808 15.7267 6.36559 16.0093L7.22581 17.2407C7.30295 17.368 7.4106 17.4731 7.53856 17.5459C7.66652 17.6188 7.81054 17.657 7.95699 17.657C8.10344 17.657 8.24746 17.6188 8.37542 17.5459C8.50337 17.4731 8.61102 17.368 8.68817 17.2407L9.54839 16.0972C9.96004 15.5822 10.5411 15.2383 11.1828 15.1296C11.5081 15.1289 11.8298 15.1992 12.1265 15.3357C12.4232 15.4722 12.688 15.6719 12.9032 15.9213C13.5914 16.625 14.0215 16.713 14.1075 16.625C14.1935 16.537 14.5376 16.0093 14.5376 15.1296V5.10185C14.5376 3.43056 14.3656 2.46296 13.8495 1.93519C13.3333 1.40741 12.5591 1.31944 11.0968 1.31944H4.73118C1.89247 1.31944 1.29032 1.93519 1.29032 5.10185V15.0417C1.29032 15.9213 1.54839 16.4491 1.72043 16.537C1.89247 16.625 2.32258 16.537 2.92473 15.8333C3.14556 15.591 3.41148 15.3961 3.7069 15.2601C4.00232 15.1242 4.32131 15.0499 4.64516 15.0417Z" fill="#111111"></path>
                                                <path d="M5.41949 11.0834C5.25993 11.0804 5.10695 11.0179 4.98939 10.9075C4.86437 10.779 4.79419 10.605 4.79419 10.4237C4.79419 10.2424 4.86437 10.0685 4.98939 9.93992L10.1507 4.66214C10.2109 4.59057 10.2849 4.53248 10.3681 4.49151C10.4513 4.45054 10.5419 4.42757 10.6342 4.42404C10.7264 4.42051 10.8184 4.43649 10.9044 4.47099C10.9903 4.50548 11.0684 4.55775 11.1337 4.62452C11.199 4.69129 11.2501 4.77112 11.2839 4.85901C11.3176 4.94691 11.3332 5.04098 11.3298 5.13534C11.3263 5.22969 11.3038 5.32231 11.2638 5.40738C11.2237 5.49245 11.1669 5.56815 11.0969 5.62974L5.93562 10.9075C5.7787 11.0051 5.60228 11.0652 5.41949 11.0834Z" fill="#111111"></path>
                                                <path d="M10.5809 11.2593C10.3528 11.2593 10.134 11.1666 9.97265 11.0016C9.81133 10.8367 9.7207 10.6129 9.7207 10.3796C9.7207 10.1463 9.81133 9.9226 9.97265 9.75764C10.134 9.59268 10.3528 9.5 10.5809 9.5C10.8091 9.5 11.0279 9.59268 11.1892 9.75764C11.3505 9.9226 11.4411 10.1463 11.4411 10.3796C11.4411 10.6129 11.3505 10.8367 11.1892 11.0016C11.0279 11.1666 10.8091 11.2593 10.5809 11.2593Z" fill="#111111"></path>
                                                <path d="M5.4196 6.42119C5.30466 6.42896 5.18943 6.41154 5.08162 6.37008C4.97381 6.32863 4.8759 6.2641 4.79445 6.18081C4.713 6.09753 4.6499 5.99741 4.60936 5.88716C4.56882 5.77692 4.55178 5.65909 4.55938 5.54156C4.55178 5.42403 4.56882 5.3062 4.60936 5.19595C4.6499 5.08571 4.713 4.98559 4.79445 4.9023C4.8759 4.81902 4.97381 4.75449 5.08162 4.71303C5.18943 4.67158 5.30466 4.65415 5.4196 4.66193C5.53453 4.65415 5.64976 4.67158 5.75757 4.71303C5.86539 4.75449 5.96329 4.81902 6.04474 4.9023C6.12619 4.98559 6.18929 5.08571 6.22983 5.19595C6.27038 5.3062 6.28741 5.42403 6.27981 5.54156C6.28741 5.65909 6.27038 5.77692 6.22983 5.88716C6.18929 5.99741 6.12619 6.09753 6.04474 6.18081C5.96329 6.2641 5.86539 6.32863 5.75757 6.37008C5.64976 6.41154 5.53453 6.42896 5.4196 6.42119Z" fill="#111111"></path>
                                            </symbol>

    <symbol id="gift" width="17" height="16" viewBox="0 0 17 16" fill="none" xmlns="http://www.w3.org/2000/svg">
                                                            <path d="M9.14355 10.375C9.14355 10.0298 8.86374 9.75 8.51855 9.75C8.17337 9.75 7.89355 10.0298 7.89355 10.375V12.875C7.89355 13.2202 8.17337 13.5 8.51855 13.5C8.86374 13.5 9.14355 13.2202 9.14355 12.875V10.375Z" fill="#111111"></path>
                                                            <path d="M2.26855 9.75C1.92337 9.75 1.64355 10.0298 1.64355 10.375V12.875C1.64355 14.5981 3.04543 16 4.76855 16H12.2686C13.9917 16 15.3936 14.5981 15.3936 12.875V10.375C15.3936 10.0298 15.1137 9.75 14.7686 9.75C14.4234 9.75 14.1436 10.0298 14.1436 10.375V12.875C14.1436 13.9089 13.3024 14.75 12.2686 14.75H4.76855C3.73468 14.75 2.89355 13.9089 2.89355 12.875V10.375C2.89355 10.0298 2.61374 9.75 2.26855 9.75Z" fill="#111111"></path>
                                                            <path d="M2.39355 8.75H14.6436C15.6774 8.75 16.5186 7.90887 16.5186 6.875V5.625C16.5186 4.59113 15.6774 3.75 14.6436 3.75H12.5572C12.7707 3.38197 12.8936 2.95519 12.8936 2.5C12.8936 1.1215 11.7721 0 10.3936 0C9.6474 0 8.97702 0.329 8.51855 0.849031C8.06009 0.329 7.38971 0 6.64355 0C5.26505 0 4.14355 1.1215 4.14355 2.5C4.14355 2.95519 4.26643 3.38197 4.4799 3.75H2.39355C1.35968 3.75 0.518555 4.59113 0.518555 5.625V6.875C0.518555 7.90887 1.35968 8.75 2.39355 8.75ZM10.3936 1.25C11.0828 1.25 11.6436 1.81075 11.6436 2.5C11.6436 3.18925 11.0828 3.75 10.3936 3.75H9.14355V2.5C9.14355 1.81075 9.7043 1.25 10.3936 1.25ZM5.39355 2.5C5.39355 1.81075 5.9543 1.25 6.64355 1.25C7.3328 1.25 7.89355 1.81075 7.89355 2.5V3.75H6.64355C5.9543 3.75 5.39355 3.18925 5.39355 2.5ZM1.76855 5.625C1.76855 5.28038 2.04893 5 2.39355 5H7.89355V5.625C7.89355 5.97019 8.17337 6.25 8.51855 6.25C8.86374 6.25 9.14355 5.97019 9.14355 5.625V5H14.6436C14.9882 5 15.2686 5.28038 15.2686 5.625V6.875C15.2686 7.21962 14.9882 7.5 14.6436 7.5H2.39355C2.04893 7.5 1.76855 7.21962 1.76855 6.875V5.625Z" fill="#111111"></path>
                                                        </symbol>

     <symbol id="shipping" width="20" height="16" viewBox="0 0 16 16" fill="none" xmlns="http://www.w3.org/2000/svg">
                                                            <path d="M13.7633 2.65861L9.8962 0.435045C8.83275 -0.145015 7.28593 -0.145015 6.31916 0.435045L2.45209 2.65861C1.38865 3.23867 0.518555 4.68882 0.518555 5.94562V10.1027C0.518555 11.3595 1.38865 12.713 2.45209 13.3897L6.31916 15.6133C6.80254 15.9033 7.47928 16 8.15602 16C8.83275 16 9.41282 15.9033 9.99288 15.6133L13.8599 13.3897C14.9234 12.8097 15.7935 11.3595 15.7935 10.1027V5.84894C15.6968 4.68882 14.8267 3.23867 13.7633 2.65861ZM6.80254 1.49849C7.09257 1.30514 7.57596 1.20846 8.05934 1.20846C8.54272 1.20846 8.92943 1.30514 9.31614 1.49849L13.1832 3.72205C13.4732 3.81873 13.6666 4.10876 13.8599 4.39879L11.7331 5.65559L5.7391 2.07855L6.80254 1.49849ZM2.93547 3.62538L4.57898 2.65861L10.5729 6.13897L8.05934 7.6858L2.16206 4.30212C2.35541 4.01208 2.64544 3.81873 2.93547 3.62538ZM2.93547 12.2296C2.25874 11.8429 1.582 10.7795 1.582 10.006V5.84894C1.582 5.65559 1.582 5.46224 1.67868 5.26888L7.47928 8.65257V14.6465C7.18925 14.6465 6.9959 14.5498 6.80254 14.4532L2.93547 12.2296ZM14.5367 10.006C14.5367 10.7795 13.9566 11.8429 13.1832 12.2296L9.31614 14.3565C9.12279 14.4532 8.92943 14.5498 8.6394 14.5498V8.65257L11.153 7.20242V8.84592C11.153 9.13595 11.443 9.42598 11.7331 9.42598C12.0231 9.42598 12.3131 9.13595 12.3131 8.84592V6.52568L14.44 5.26888C14.44 5.55891 14.5367 5.75227 14.5367 5.84894V10.006Z" fill="#111111"></path>
                                                        </symbol>
                                                        
    <symbol id="gift-2" width="30" height="30" viewBox="0 0 30 30" fill="none" xmlns="http://www.w3.org/2000/svg">
                                                        <path d="M16.1719 19.4531C16.1719 18.8059 15.6472 18.2812 15 18.2812C14.3528 18.2812 13.8281 18.8059 13.8281 19.4531V24.1406C13.8281 24.7879 14.3528 25.3125 15 25.3125C15.6472 25.3125 16.1719 24.7879 16.1719 24.1406V19.4531Z" fill="#111111"></path>
                                                        <path d="M3.28125 18.2812C2.63402 18.2812 2.10938 18.8059 2.10938 19.4531V24.1406C2.10938 27.3715 4.73789 30 7.96875 30H22.0312C25.2622 30 27.8906 27.3715 27.8906 24.1406V19.4531C27.8906 18.8059 27.366 18.2812 26.7188 18.2812C26.0715 18.2812 25.5469 18.8059 25.5469 19.4531V24.1406C25.5469 26.0791 23.9698 27.6562 22.0312 27.6562H7.96875C6.03023 27.6562 4.45312 26.0791 4.45312 24.1406V19.4531C4.45312 18.8059 3.92848 18.2812 3.28125 18.2812Z" fill="#111111"></path>
                                                        <path d="M3.51562 16.4062H26.4844C28.4229 16.4062 30 14.8291 30 12.8906V10.5469C30 8.60836 28.4229 7.03125 26.4844 7.03125H22.5725C22.9727 6.34119 23.2031 5.54098 23.2031 4.6875C23.2031 2.10281 21.1003 0 18.5156 0C17.1166 0 15.8596 0.616875 15 1.59193C14.1404 0.616875 12.8834 0 11.4844 0C8.89969 0 6.79688 2.10281 6.79688 4.6875C6.79688 5.54098 7.02727 6.34119 7.42752 7.03125H3.51562C1.57711 7.03125 0 8.60836 0 10.5469V12.8906C0 14.8291 1.57711 16.4062 3.51562 16.4062ZM18.5156 2.34375C19.808 2.34375 20.8594 3.39516 20.8594 4.6875C20.8594 5.97984 19.808 7.03125 18.5156 7.03125H16.1719V4.6875C16.1719 3.39516 17.2233 2.34375 18.5156 2.34375ZM9.14062 4.6875C9.14062 3.39516 10.192 2.34375 11.4844 2.34375C12.7767 2.34375 13.8281 3.39516 13.8281 4.6875V7.03125H11.4844C10.192 7.03125 9.14062 5.97984 9.14062 4.6875ZM2.34375 10.5469C2.34375 9.9007 2.86945 9.375 3.51562 9.375H13.8281V10.5469C13.8281 11.1941 14.3528 11.7188 15 11.7188C15.6472 11.7188 16.1719 11.1941 16.1719 10.5469V9.375H26.4844C27.1305 9.375 27.6562 9.9007 27.6562 10.5469V12.8906C27.6562 13.5368 27.1305 14.0625 26.4844 14.0625H3.51562C2.86945 14.0625 2.34375 13.5368 2.34375 12.8906V10.5469Z" fill="#111111"></path>
                                                    </symbol>

    <symbol id="high_quality_items" xmlns="http://www.w3.org/2000/svg" width="40" height="40" viewBox="0 0 40 40" fill="none">
        <path d="M31.782 8.21671L8.21535 31.7834C5.19869 28.7667 3.33203 24.6 3.33203 20C3.33203 10.8 10.7987 3.33337 19.9987 3.33337C24.5987 3.33337 28.7654 5.20004 31.782 8.21671Z" stroke="#111111" stroke-width="2" stroke-linecap="round" stroke-linejoin="round"/>
        <path d="M36.6649 20C36.6649 29.2 29.1982 36.6667 19.9982 36.6667C15.3982 36.6667 11.2315 34.8 8.21484 31.7833L31.7815 8.21667C34.7982 11.2333 36.6649 15.4 36.6649 20Z" stroke="#111111" stroke-width="2" stroke-linecap="round" stroke-linejoin="round"/>
        <path d="M12.9336 27.0667L22.3502 36.5" stroke="#111111" stroke-width="2" stroke-linecap="round" stroke-linejoin="round"/>
        <path d="M18.8164 21.1833L29.7831 32.1333" stroke="#111111" stroke-width="2" stroke-linecap="round" stroke-linejoin="round"/>
        <path d="M24.7148 15.2833L35.1981 25.7833" stroke="#111111" stroke-width="2" stroke-linecap="round" stroke-linejoin="round"/>
    </symbol>

    <symbol id="materials_tested" xmlns="http://www.w3.org/2000/svg" width="40" height="40" viewBox="0 0 40 40" fill="none">
        <path d="M23.332 26.6667C23.332 29.6167 22.0487 32.2834 19.9987 34.1001C18.232 35.7001 15.8987 36.6667 13.332 36.6667C7.81536 36.6667 3.33203 32.1834 3.33203 26.6667C3.33203 22.0667 6.46536 18.1667 10.6987 17.0167C11.8487 19.9167 14.3154 22.1501 17.3654 22.9834C18.1987 23.2167 19.082 23.3334 19.9987 23.3334C20.9154 23.3334 21.7987 23.2167 22.632 22.9834C23.082 24.1167 23.332 25.3667 23.332 26.6667Z" stroke="#111111" stroke-width="2" stroke-linecap="round" stroke-linejoin="round"/>
        <path d="M30 13.3334C30 14.6334 29.75 15.8834 29.3 17.0167C28.15 19.9167 25.6833 22.15 22.6333 22.9834C21.8 23.2167 20.9167 23.3334 20 23.3334C19.0833 23.3334 18.2 23.2167 17.3667 22.9834C14.3167 22.15 11.85 19.9167 10.7 17.0167C10.25 15.8834 10 14.6334 10 13.3334C10 7.81671 14.4833 3.33337 20 3.33337C25.5167 3.33337 30 7.81671 30 13.3334Z" stroke="#111111" stroke-width="2" stroke-linecap="round" stroke-linejoin="round"/>
        <path d="M36.6667 26.6667C36.6667 32.1834 32.1833 36.6667 26.6667 36.6667C24.1 36.6667 21.7667 35.7001 20 34.1001C22.05 32.2834 23.3333 29.6167 23.3333 26.6667C23.3333 25.3667 23.0833 24.1167 22.6333 22.9834C25.6833 22.1501 28.15 19.9167 29.3 17.0167C33.5333 18.1667 36.6667 22.0667 36.6667 26.6667Z" stroke="#111111" stroke-width="2" stroke-linecap="round" stroke-linejoin="round"/>
    </symbol>

    <symbol id="support_online" xmlns="http://www.w3.org/2000/svg" width="40" height="40" viewBox="0 0 40 40" fill="none">
        <path d="M13.9648 20L17.9815 24.0333L26.0315 15.9667" stroke="#111111" stroke-width="2" stroke-linecap="round" stroke-linejoin="round"/>
        <path d="M17.9148 4.08333C19.0648 3.09999 20.9482 3.09999 22.1148 4.08333L24.7482 6.34999C25.2482 6.78333 26.1815 7.13333 26.8482 7.13333H29.6815C31.4482 7.13333 32.8982 8.58333 32.8982 10.35V13.1833C32.8982 13.8333 33.2482 14.7833 33.6815 15.2833L35.9482 17.9167C36.9315 19.0667 36.9315 20.95 35.9482 22.1167L33.6815 24.75C33.2482 25.25 32.8982 26.1833 32.8982 26.85V29.6833C32.8982 31.45 31.4482 32.9 29.6815 32.9H26.8482C26.1982 32.9 25.2482 33.25 24.7482 33.6833L22.1148 35.95C20.9648 36.9333 19.0815 36.9333 17.9148 35.95L15.2815 33.6833C14.7815 33.25 13.8482 32.9 13.1815 32.9H10.2982C8.53151 32.9 7.08151 31.45 7.08151 29.6833V26.8333C7.08151 26.1833 6.73151 25.25 6.31484 24.75L4.06484 22.1C3.09818 20.95 3.09818 19.0833 4.06484 17.9333L6.31484 15.2833C6.73151 14.7833 7.08151 13.85 7.08151 13.2V10.3333C7.08151 8.56666 8.53151 7.11666 10.2982 7.11666H13.1815C13.8315 7.11666 14.7815 6.76666 15.2815 6.33333L17.9148 4.08333Z" stroke="#111111" stroke-width="2" stroke-linecap="round" stroke-linejoin="round"/>
    </symbol>
</svg>